<?xml version="1.0" standalone="no"?>
<!DOCTYPE svg PUBLIC "-//W3C//DTD SVG 20010904//EN"
 "http://www.w3.org/TR/2001/REC-SVG-20010904/DTD/svg10.dtd">
<svg version="1.0" xmlns="http://www.w3.org/2000/svg"
 width="200.000000pt" height="200.000000pt" viewBox="0 0 200.000000 200.000000"
 preserveAspectRatio="xMidYMid meet">
<metadata>
Created by potrace 1.11, written by Peter Selinger 2001-2013
</metadata>
<g transform="translate(0.000000,200.000000) scale(0.100000,-0.100000)"
fill="#000000" stroke="none">
<path d="M328 1838 c-21 -17 -320 -439 -325 -459 -3 -9 78 -117 203 -270 598
-733 776 -949 784 -954 6 -3 16 -2 24 2 8 4 128 147 267 318 139 171 358 438
486 595 128 157 233 293 233 304 0 17 -263 397 -313 454 l-20 22 -662 0 c-514
0 -665 -3 -677 -12z m506 -136 c-299 -281 -293 -276 -303 -250 -5 12 -37 89
-70 171 l-59 147 251 0 252 -1 -71 -67z m766 63 c0 -2 -7 -23 -16 -46 -15 -36
-15 -42 -2 -56 23 -23 55 -8 68 32 6 19 15 35 18 34 4 0 57 -71 119 -157 l111
-157 -35 -5 c-67 -9 -68 -65 -1 -72 31 -3 28 -7 -222 -313 -448 -548 -503
-615 -506 -615 -4 0 -12 -19 140 357 69 172 126 321 126 332 0 17 -18 31 -40
31 -5 0 -15 -10 -21 -22 -14 -25 -265 -643 -306 -751 -14 -38 -29 -65 -33 -60
-4 4 -48 109 -97 233 -50 124 -143 354 -207 512 -64 158 -116 290 -116 293 0
3 148 5 329 5 288 0 330 2 342 16 9 11 10 20 2 32 -9 15 -45 18 -317 22 l-306
5 185 173 186 174 74 -69 c241 -220 234 -214 255 -203 32 17 24 44 -27 91 -27
23 -83 76 -126 116 l-79 73 251 0 c138 0 251 -2 251 -5z m-1192 -200 c34 -82
60 -151 58 -152 -2 -2 -83 -2 -180 -1 l-178 3 112 158 c62 87 116 155 120 150
5 -4 35 -75 68 -158z m273 -675 c213 -525 203 -500 187 -480 -7 9 -130 159
-273 334 -143 175 -311 381 -373 458 l-113 138 196 -2 196 -3 180 -445z"/>
<path d="M1495 1559 c-15 -23 -31 -54 -36 -68 -7 -19 -28 -36 -75 -59 -35 -18
-68 -40 -71 -49 -7 -19 30 -52 90 -79 30 -14 45 -30 67 -74 51 -102 74 -103
122 -6 28 58 36 66 90 92 33 15 64 34 69 40 18 21 -6 48 -68 78 -53 25 -62 34
-93 94 -19 37 -43 68 -52 70 -11 2 -26 -12 -43 -39z m111 -166 l35 -17 -35
-18 c-21 -11 -44 -34 -55 -56 l-19 -37 -17 36 c-11 23 -31 43 -54 54 l-36 17
35 18 c22 11 42 33 54 57 l18 38 19 -38 c12 -23 34 -44 55 -54z"/>
</g>
</svg>
