<?xml version="1.0" standalone="no"?>
<!DOCTYPE svg PUBLIC "-//W3C//DTD SVG 20010904//EN"
 "http://www.w3.org/TR/2001/REC-SVG-20010904/DTD/svg10.dtd">
<svg version="1.0" xmlns="http://www.w3.org/2000/svg"
 width="512.000000pt" height="512.000000pt" viewBox="0 0 512.000000 512.000000"
 preserveAspectRatio="xMidYMid meet">
<metadata>
Created by potrace 1.11, written by Peter Selinger 2001-2013
</metadata>
<g transform="translate(0.000000,512.000000) scale(0.100000,-0.100000)"
fill="#000000" stroke="none">
<path d="M2457 4564 c-1 -1 -38 -5 -81 -8 -107 -8 -229 -31 -356 -67 -583
-166 -1064 -590 -1303 -1146 l-26 -63 -118 -1 c-65 0 -125 -2 -133 -4 -69 -13
-144 -76 -180 -149 -20 -43 -21 -52 -18 -577 3 -586 0 -557 65 -625 65 -69 94
-79 251 -82 91 -3 142 -8 142 -14 0 -6 29 -70 65 -143 152 -310 374 -566 665
-770 72 -51 214 -131 315 -177 72 -34 237 -95 275 -103 8 -2 33 -8 55 -13 162
-43 285 -57 485 -57 200 0 305 12 465 51 71 18 212 61 240 74 11 5 45 19 75
31 380 156 751 486 961 855 35 62 95 186 110 227 l13 37 127 0 c147 0 190 13
253 76 79 79 77 60 74 658 -3 593 1 557 -76 632 -64 63 -83 68 -236 72 l-138
4 -16 41 c-9 23 -39 88 -68 143 -305 602 -908 1016 -1584 1090 -59 6 -298 13
-303 8z m198 -179 c216 -57 415 -323 545 -730 32 -103 90 -332 90 -359 0 -14
-77 -16 -734 -16 l-733 0 18 88 c112 540 336 919 597 1010 67 24 142 26 217 7z
m-578 -92 c-190 -236 -320 -543 -406 -955 l-12 -58 -395 0 -395 0 7 23 c23 75
124 249 217 374 198 266 483 483 787 601 49 19 227 77 248 81 2 1 -22 -29 -51
-66z m1138 -5 c311 -124 548 -293 758 -538 89 -105 277 -416 277 -460 0 -12
-786 -14 -793 -2 -3 4 -8 25 -11 47 -4 22 -11 58 -17 80 -6 22 -12 47 -14 55
-11 55 -65 238 -89 300 -46 116 -62 154 -103 234 -55 112 -143 247 -194 300
-21 23 -39 44 -39 47 0 8 159 -36 225 -63z m1487 -1186 c10 -10 13 -121 13
-542 0 -517 0 -529 -20 -544 -18 -14 -259 -15 -2142 -13 -1725 2 -2124 4
-2135 15 -10 10 -14 120 -16 515 -2 276 0 517 3 535 4 21 14 36 28 42 13 5
924 8 2139 7 1722 -2 2119 -4 2130 -15z m-3034 -1292 c6 -47 63 -269 92 -357
83 -258 208 -497 332 -638 l41 -46 -29 7 c-154 35 -413 148 -554 243 -225 150
-415 345 -550 566 -41 66 -130 238 -130 250 0 3 179 4 398 3 l397 -3 3 -25z
m1622 13 c0 -15 -7 -48 -36 -165 -2 -10 -6 -28 -9 -40 -33 -153 -158 -462
-233 -574 -4 -6 -20 -31 -36 -55 -39 -60 -161 -178 -216 -211 -136 -79 -291
-72 -427 20 -173 117 -322 368 -428 719 -33 109 -75 282 -75 310 0 11 139 13
730 13 689 0 730 -1 730 -17z m960 12 c0 -9 -60 -132 -97 -197 -96 -172 -290
-398 -447 -523 -155 -123 -365 -236 -556 -298 -174 -58 -171 -58 -112 10 178
206 341 590 408 963 4 19 9 38 11 43 4 8 793 10 793 2z"/>
<path d="M994 2807 c-19 -17 -27 -33 -26 -53 0 -26 77 -208 185 -445 36 -77
59 -92 117 -76 24 6 86 100 153 230 17 33 13 38 97 -110 67 -119 94 -142 143
-124 31 12 38 23 87 131 23 52 50 113 61 136 112 248 118 274 75 311 -56 48
-107 20 -151 -84 -16 -37 -46 -106 -67 -152 l-39 -84 -32 54 c-18 30 -46 80
-62 112 -45 86 -107 107 -156 51 -9 -11 -36 -55 -60 -99 -24 -44 -47 -81 -51
-83 -4 -2 -8 -10 -8 -18 0 -36 -20 -2 -80 137 -66 154 -91 189 -136 189 -12 0
-35 -11 -50 -23z"/>
<path d="M2115 2808 c-17 -15 -26 -34 -27 -53 -1 -41 196 -484 227 -512 23
-21 40 -22 83 -9 18 6 78 101 147 234 15 28 14 29 91 -110 62 -112 91 -140
139 -130 34 6 49 26 88 117 19 44 47 107 62 140 119 260 125 284 80 323 -14
12 -36 22 -48 22 -52 0 -76 -37 -168 -257 -19 -46 -36 -83 -39 -83 -3 0 -33
49 -65 110 -65 119 -99 149 -147 131 -32 -12 -49 -34 -99 -126 -24 -44 -47
-81 -51 -83 -4 -2 -8 -10 -8 -18 0 -36 -20 -2 -80 137 -66 154 -91 189 -136
189 -12 0 -35 -10 -49 -22z"/>
<path d="M3235 2808 c-17 -15 -26 -33 -27 -53 0 -31 192 -477 218 -506 9 -9
26 -19 39 -21 47 -9 78 18 135 120 30 53 58 105 62 115 4 9 11 17 16 17 4 0
37 -52 73 -115 50 -89 71 -118 97 -130 27 -14 36 -14 60 -3 32 15 43 37 161
306 96 220 99 237 49 275 -20 15 -35 18 -61 13 -39 -7 -42 -13 -132 -216 -25
-58 -49 -108 -53 -112 -4 -4 -33 39 -65 96 -64 117 -85 139 -127 139 -42 0
-63 -22 -127 -139 -32 -57 -61 -100 -65 -96 -4 4 -35 70 -68 147 -63 144 -93
185 -135 185 -13 0 -36 -10 -50 -22z"/>
</g>
</svg>
