<svg width="0" height="0" class="hidden">
  <symbol xmlns="http://www.w3.org/2000/svg" viewBox="0 0 10 5" id="to-top">
    <path fill-rule="evenodd" clip-rule="evenodd" d="M5 3.847L8.689.14a.473.473 0 01.672 0 .48.48 0 010 .675L5.336 4.86a.473.473 0 01-.672 0L.639.815a.48.48 0 010-.675.473.473 0 01.672 0L5 3.847z"></path>
  </symbol>

  <symbol version="1.0" xmlns="http://www.w3.org/2000/svg" viewBox="0 0 512 512" id="github">
    <path d="M227.5 32.2c-39.8 4-82.2 21-114.7 46-40.4 31.1-69.8 75.6-82.3 124.3-5.5 21.4-6.9 33.2-6.9 57.5 0 15.6.5 24.6 1.8 33 7.9 51.2 30.9 95.9 67.8 131.6 45.3 43.8 104.3 66.4 167.2 64.1 19.3-.7 32.7-2.6 50.1-7.2 32.8-8.5 62.3-23.8 89.4-46.3 43.9-36.4 73.7-92.2 80-149.4 1.4-12.5 1.4-39.1 0-51.6-8.7-79.6-60.4-150.4-133.6-183.2-37-16.5-77.6-23-118.8-18.8zm107.7 115.1c.5.7 1.5 3.7 2.4 6.7 1.3 4.3 1.6 8.2 1.2 18.7l-.5 13.3 4.5 5.7c5.8 7.5 9.7 15.9 11.8 25.1 2.3 10.2 1.5 34.1-1.5 46-3.6 14.4-13.4 27.8-25.3 34.6-7 3.9-21.2 8.3-33.4 10.1l-10.9 1.7 4.6 4.7c7.4 7.4 8.1 10.7 8.7 42.1.5 29.8.5 29.9 7.7 35.1 6.2 4.5 5.7 6.3-2 6.7-5 .2-7-.2-11.4-2.5-9.5-4.9-9.5-4.8-10.2-32.6-.6-24.3-1.3-28.9-4.5-30.1-1.2-.4-1.4 4.1-1.4 26.7.1 29.2.4 31.4 5.3 37.9 4.7 6.1 2.9 9.1-4.1 7-6.9-2.1-12.1-6.3-15-12.2l-2.7-5.5-.3-28.3c-.3-27-.4-28.2-2.3-28.2-1.8 0-1.9 1-1.9 21.2 0 27.9-1.1 38-4.8 43.3-4.1 5.8-10.2 9.8-15.4 9.9-5.3.1-6.2-2.3-2.5-6.2 4.2-4.4 4.8-9.4 4.5-39.2l-.3-27.5-2.2 4.5c-2.1 4.2-2.3 5.8-2.3 26.5 0 26.5-.2 27.2-9.9 32.2-4.8 2.5-7.5 3.3-11.4 3.3-8.7 0-8.9-1-1.4-8.2l6.7-6.4v-32l-12.2.1c-9.9 0-13.4-.4-17.7-2-8.1-3-14.1-9-19.5-19.4-5.5-10.6-8.1-13.9-15.3-19.2-7.4-5.5-6.9-7.9 1.5-7.9 6.2.1 11.4 3.2 18.3 11.1 11.4 13 14.3 15.5 19.2 16.7 6.5 1.7 16.4 1.4 22.2-.6 4.2-1.5 5-2.2 5.8-5.1 1-4.2 3.1-7.6 7.5-12.2l3.4-3.6-5.9-.7c-8.4-1-24.2-5.1-30.6-8-13.5-5.9-23.9-15.2-30.1-26.6-5-9.3-7.4-18-8.8-32.2-2.1-20.6 1.1-33.9 11.4-47.6l4.4-5.7-1.2-5.5c-2.3-10.5-1.3-24.2 2.3-33.2 1.4-3.5 1.9-3.8 5.3-3.8 7.6 0 22.6 5.9 34.7 13.6l5.2 3.3 7.8-2.1c6.9-1.9 10.5-2.1 31.8-2.2 18.3 0 25.6.3 30.7 1.5l6.7 1.5 4.8-2.9c16.4-10.3 35.6-15.9 38.5-11.4z"></path>
  </symbol>

  <symbol version="1.0" xmlns="http://www.w3.org/2000/svg" viewBox="0 0 512 512" id="gmail">
    <path d="M230 11.1C171.9 16.9 113.1 46.7 74.3 90c-24.6 27.4-40.6 54.8-51.8 88.4-9.8 29.4-13.1 52.6-12.2 85 1.1 38.7 8.2 67.5 25.2 102.1 36.5 74 108 124.8 190.5 135.1 13.4 1.6 44 1.8 57.8.3 46.2-5 93.9-25.4 130.3-55.7 47.9-40.1 80.2-100 86.8-161.4 2.3-21 1-54.9-2.9-74.8-7.8-40.1-27.2-80.3-54.3-112.5C403.2 48.4 343.5 17.3 280.1 11c-12-1.2-37.8-1.1-50.1.1zm167.5 119.8c6.3 3.2 12.4 9.3 15.6 15.6l2.4 5v210l-2.9 5.3c-3.4 6-8.5 11.1-14.8 14.4l-4.3 2.3-135.7.3-135.6.2-5.8-2.1c-7.9-3-15.3-10.4-18.2-18.2-2.2-5.8-2.2-5.8-2.2-107.6 0-74.3.3-102.7 1.2-105.2 3.2-9.5 12.9-19.2 21.8-21.7 2.3-.7 51.3-1 138.5-.9l135 .2 5 2.4z"></path>
    <path d="M128 256v96h32l.2-70.3.3-70.4 47.8 30.3 47.8 30.2 32.7-20.7c18-11.4 39.6-25.1 48-30.4l15.2-9.6V352h32V160h-18.5L312 193.1c-29.4 18.3-54.2 33.4-55.1 33.6-1 .3-24-13.3-56-33.1L146.6 160H128v96z"></path>
  </symbol>

  <symbol version="1.0" xmlns="http://www.w3.org/2000/svg" viewBox="0 0 980 980" id="phone">
    <path d="M456 1.1C352.5 8.6 256.2 47.4 176 113.9c-15 12.3-50.1 47.5-62.2 62.1C25.7 282.8-13.2 416.3 4 552.5 15.9 645.9 54.1 732.6 116.4 807c9.8 11.7 37 39.3 49.6 50.4 132.8 116.6 315.8 153.1 482.5 96.2 89.5-30.5 170-87.9 228.1-162.7 73.5-94.6 110-212.6 102.4-331.4-7-109.4-49.1-210.9-121.6-293.5-11.2-12.8-38.6-39.8-50.9-50.1C730.2 51.7 640 13.3 540 2.5 522.6.6 473.6-.2 456 1.1zm254.1 187.4c3.6 1.3 8.5 5.6 27.2 24.3l22.7 22.7-75.3 75.3-75.2 75.2-23.1-23.2c-20.7-20.9-23.2-23.8-24.4-28.1-1.4-5.4-.8-12.1 1.6-17 1.6-3.1 116.1-118.8 123.7-124.9 7.1-5.7 14.6-7.1 22.8-4.3zm69.9 72.1c4.5 9.2 8.3 21.7 10.7 34.9 2.4 12.7 2.3 44 0 59.5-12.5 81.3-64.9 169.1-158 264.7-59.5 61-122.9 109.8-179.5 138.2-65.4 32.7-128.3 43-175.8 28.6-9.3-2.8-22.4-9.2-27.2-13.2l-3.2-2.8 73.4-73.4 73.4-73.4 4.8 3.2c17.4 11.5 35.6 3.9 84.4-35.3 50.2-40.2 100.4-91.4 129.5-132.1 10.2-14.3 17.5-31.2 17.5-40.7 0-5.2-2.6-13-5.9-17.4l-2.9-3.9 75.1-75.3 75.2-75.3 2.3 2.8c1.3 1.6 4.1 6.5 6.2 10.9zM335.6 566.5c3.4 1.7 11.3 8.9 26.4 24l21.5 21.5-73.8 73.7-73.7 73.8-22.6-22.5c-12.4-12.4-23.2-23.8-24-25.3-2.5-4.6-2.8-11.8-.9-17.8 1.6-5.1 4.6-8.3 62.3-65.7 39.9-39.7 62.1-61 64.7-62.2 5.8-2.8 13.9-2.6 20.1.5z"></path>
  </symbol>
  
  <symbol version="1.0" xmlns="http://www.w3.org/2000/svg" viewBox="0 0 400 400" id="tg">
    <path d="M176.5 23.5C98.8 34.6 38.6 92.8 24.4 170.5c-2.6 14.1-2.6 45.9 0 60 6.9 37.6 23.4 69.3 50.1 96 26.6 26.7 58.4 43.2 96 50.1 14.1 2.6 45.9 2.6 60 0 37.6-6.9 69.4-23.4 96-50.1 26.7-26.7 43.2-58.4 50.1-96 2.6-14.1 2.6-45.9 0-60-6.9-37.6-23.4-69.4-50.1-96-26.7-26.6-58.7-43.4-95.5-50-13.1-2.3-41.5-2.9-54.5-1zm108.3 91.7c.7.7 1.2 2.3 1.2 3.7 0 1.5-7.1 38.6-15.9 82.5l-15.8 80-3.2 2.8c-2.4 2.2-4.1 2.8-7.5 2.8-4.2 0-5.5-.9-28.1-18.8-13.1-10.3-29.7-23.3-36.8-29-7.2-5.6-13.3-10.4-13.5-10.6-.2-.2 19.3-18 43.2-39.6 24-21.6 43.6-39.8 43.6-40.5 0-2.9-2.3-2.5-8.8 1.3-3.7 2.3-29 18.2-56.1 35.5l-49.5 31.5-23.5-7.9c-19.6-6.6-24.1-8.4-26.3-10.9-3.4-3.7-3.5-6-.4-8.9 1.8-1.7 117.4-47.8 182.7-72.9 6.1-2.4 12.9-2.8 14.7-1zM178.7 240.7l13.6 10.7-5 4.6c-25.5 23.5-28.3 25.6-28.3 21.2 0-.9 1.1-11.2 2.5-22.7 1.4-11.6 2.5-21.8 2.5-22.8 0-.9.2-1.7.5-1.7s6.7 4.8 14.2 10.7z"></path>
  </symbol>
</svg>